- 
http://www.Speed.Cd
 
http://www.Speed.Cd       the fast  and The Hottest Private Tracker on the net

Please Seed back to make the speed Faster!!
 ............ NFO .............
-
                                                  
                 ...                            
            .                 . .          ..8MMMMMMMM  .                       
           .                  ..?MMMMMMMMD~,......~MMMMMM.                      
           MMMM.....IMN. . +MMMMMMMZ.. ..    .        ..ZMM.. .                 
          .MMMMMMMMMMMMMMMMMMMM,...=MMMM~.  .             .MM: .                
          .MMMMMMM~:,:~=MMMMMMMMZZMMMMMMMMMMMMMMM..MMM,..MM..MMM                
         ..MMMMMMMMMM.   ...NMMMMMMMMMMMMMMMMMMMMMMMMMMMMMMMMM.+MM.             
          .MMMMMMMMMMMM    ..+MMMMMMMMMMMMMMMMMMMMMMZ.?MM.M.,MMM+=MM.  .        
           MMMMMMMMMMMMM.MMMMMMMMMMMMMMMMMMMMMMMMMMMMDMM..M. ..MMM$:MMM...      
           =MMMMMMMMMMMMMMMMMMMMMMMMMMMMMMMMMMMMM....=MMZ:MM   .+MMM.,MMMO      
          .MMMMMMMMMMMMMMMMMMMMMMMMMMMMMMMMMMMMMMMMMMM~..MMM..MMMMMMM...MMMZ    
         .MMMMMMMMMMMMMMMMMMMMMMMMMMMMMMMMMMMMMMMMMMMMM.. MMM.MMMMMMMM  .MMMM.  
       .MOZZMMMMMMMMMMMMMMMMMMMMMMMMMMMMMMMMMMMMMMMM7. .. MMMMMMMMMMMMMN..DMM=  
     .MD:.MMMMMMMMMMMMMMMMMMIIZMMMMMMMMMMMMMMMMMMMMMMMMMMMMMMMMMMMMMMMMMMMMMMM. 
  .:M~,.MMMMMM~MMMMMMMMMMMO...MMM.......MMMMMMMMMMMMMMMMMMMMMMMMMMMZMMMMMMMMMM  
 MMM,..MMMMMMM:,,MMMMMMMMMMMMMMMMMMM7.    ...MMMMMMMMMMMMMMMMMMMMMOOOOMMMMMMM,  
.MMM..MMMMMMMMMI..:MMMMMMMMMMMMMMMMMMMMM. ,MMMMMMMMMMMMMMMMMMMMNDN8OMMMMMMMM~.  
.MMM:=MMMMMMMMMMM.........MMMMMMMMMMMMMMMMMMMMMMMMMMMMMMMMMMMMMMMMM,.,:8MMMM... 
. MMMMMMMMMMMMMMMM.    ...MMMMMMMMMMMMMMMMMOMM=.  .OMMMM?$MMO..,O~$OMMMMMMMM.  .
..MMMMMMMMMMMMMMMMM. .   .MMMMMMMMMMMMMMMM,O8. .OODMMMMMMMMM~. .Z.:Z8,MMMMM.    
 ..MMMMMMMMMMMMMMMMM..   :MMMMMMMMMMMMMMM.8O. 7OZMM+MMMMMM..   .Z8O,OO.         
  .MMMMMMMMMMMMMMMMM8.   ,MMMMMMMMMMMMM7$O...ZMMM?MMMMMMM.     ZO...M.          
  ..MMMMMMMMMMMMMMMMN.   .MMMMMMMMMMMMOOO..IMMM7 MMMMMM, .     :. . .           
  ..MMMMMMMMMMMMMMMMM?.  .MMMMMMMMMMMMMM,.MMM+.MMMMMMM..                        
   ..MMMMMMMMMMMMMMMMM.  .MMMMMMMMMMMMMMMMMM..MMMMMMM.                          
   ..MMMMMMMMMMMMMMMMM~. ..MMMMMMMMMMMMMMMZ.?MMMMMMM.                           
     .MMMMMMMMMMMMMMMMM~...MMMMMMMMMMMMMMM...MM~.....                           
     .IMMMMMMMMMMMMMMMMM,...MMMMMMMMMMMMMM..MMMMMMMMM.                          
      .MMMMMMMMMMMMMMMMMMM..MMMMMMMMMMMMMMM,ZMM~MMM .M...  ~                    
     ..IMMMMMMMMMMMMMMMMMMM..MMMMM8:M,MMMMMM.MMM...+. .M.?Z8  Z.                
      ..MMMMMMMMMMMMMMMMMMM,..MMMMZO:M.:MMMMM..,MD     .:M$M.MMM.               
       .IMMMMMMMMMMMMMMMMMM.  :MMMMOO~8M,OMMMM...MMM    MM,MOO$M. .   .        .
        .MMMMMMMMMMMMMMMMMZ.  .MMMMMMMMMMMMMMMMM...MMM8MM.=M...=M.            . 
        ..MMMMMMMMMMMMMMMM~. .DMMMMMMMMMMMMMMMMMMMMMMMM~..O:...MM.           .  
         .MMMMMMMMMMMMMMMM: .MMMMMMMMMMMMMMMMMMMMMMMMMMMOZMMMMM?.               
         ..MMMMMMMMMMMMMMM~.MMMMMMMMM7I+8MMMMMMMMMMMM:,:MMMMMM~.                
          .MMMMMMMMMMMMMMMMMMMMM?,.. ..   ..,MMMMMMMMMM.,8MMMM,.                
           .MMMMMMMMMMMMMMMMMM~..            ..:MMMMMMMM...,M?.                 
           .MMMMMMMMMMMMMMMM?.. . .            ..MMMMMM,.=MM+.                  
            .MMMMMMMMMMMMMM:.      .             .,+MMN7=:,..                   
           ..,MMMMMMMMMMMM:.     .                  .......                     
             .,MMMMMMMMMM,.                                                     
              .,MMMMMMMM=...                                                    
          .     .DMMMMMM...                                                     
                 .,ZMM:.   .                                                    
                   ....                                                        



       ######     #####  #    #    #    #######  #####  
       #     # # #     # #   #    # #      #    #     # 
       #     # # #       #  #    #   #     #    #       
       ######  # #  #### ###    #     #    #     #####  
       #     # # #     # #  #   #######    #          # 
       #     # # #     # #   #  #     #    #    #     # 
       ######  #  #####  #    # #     #    #     #####   


Amazing.Racer.2012.WEBHDRiP.x264.AC3-BiGKATS

[IMG]http://i.imgur.com/IKzrjDz.jpg[/IMG]

iMDB:  http://www.imdb.com/title/tt2401575

Source:  720p WEBiOS  -  MANY THANKX

Amazing.Racer.2012.WEBHDRiP.x264.AC3-BiGKATS.mkv
Format                                   : Matroska
Format version                           : Version 2
File size                                : 2.00 GiB
Duration                                 : 1h 31mn
Overall bit rate mode                    : Variable
Overall bit rate                         : 3 122 Kbps
Encoded date                             : UTC 2013-01-22 06:24:07
Writing application                      : mkvmerge v5.8.0 ('No Sleep / Pillow') built on Sep  2 2012 15:37:04
Writing library                          : libebml v1.2.3 + libmatroska v1.3.0

Video
ID                                       : 1
Format                                   : AVC
Format/Info                              : Advanced Video Codec
Format profile                           : High@L4.1
Format settings, CABAC                   : Yes
Format settings, ReFrames                : 3 frames
Codec ID                                 : V_MPEG4/ISO/AVC
Duration                                 : 1h 31mn
Bit rate mode                            : Variable
Bit rate                                 : 2 737 Kbps
Maximum bit rate                         : 40.0 Mbps
Width                                    : 720 pixels
Height                                   : 304 pixels
Display aspect ratio                     : 2.35:1
Frame rate mode                          : Constant
Frame rate                               : 23.976 fps
Color space                              : YUV
Chroma subsampling                       : 4:2:0
Bit depth                                : 8 bits
Scan type                                : Progressive
Bits/(Pixel*Frame)                       : 0.522
Stream size                              : 1.71 GiB (86%)
Title                                    : Amazing.Racer.2012.WEBHDRiP.x264.AC3-BiGKATS
Writing library                          : x264 core 129 r2245 bc13772


Audio
ID                                       : 2
Format                                   : AC-3
Format/Info                              : Audio Coding 3
Mode extension                           : CM (complete main)
Format settings, Endianness              : Big
Codec ID                                 : A_AC3
Duration                                 : 1h 31mn
Bit rate mode                            : Constant
Bit rate                                 : 384 Kbps
Channel(s)                               : 6 channels
Channel positions                        : Front: L C R, Side: L R, LFE
Sampling rate                            : 48.0 KHz
Bit depth                                : 16 bits
Compression mode                         : Lossy
Stream size                              : 252 MiB (12%)
Title                                    : 5.1
Language                                 : English
Default                                  : Yes
Forced                                   : No


[IMG]http://i.imgur.com/crayjxn.png[/IMG]
[IMG]http://i.imgur.com/RVROzRe.png[/IMG]
[IMG]http://i.imgur.com/RwU2HbH.png[/IMG]
[IMG]http://i.imgur.com/6yHx07L.png[/IMG]
[IMG]http://i.imgur.com/KVTgbvl.png[/IMG]
[IMG]http://i.imgur.com/P9rJdKR.png[/IMG]
[IMG]http://i.imgur.com/jPCmNTG.png[/IMG]
[IMG]http://i.imgur.com/9W5e6lV.png[/IMG]

Greets: TRiNiTY, Stonehill, AXED, DeAtHRoW, TKS69, THC, MATiNE, DQ1, Mr. Rep, UnKnOwN, HELLRAZOR, BiGKATS FAM.

If you have what it takes to be part of an awesome team, let us know! We are always looking for good reliable sources..cams, audio etc. contact us at Bigkats2013@gmail.com

"Don't Talk About It, Be About It"

				[IMG]http://i.imgur.com/UvM02.gif[/IMG]